<?xml version="1.0" standalone="no"?>
<!DOCTYPE svg PUBLIC "-//W3C//DTD SVG 20010904//EN"
 "http://www.w3.org/TR/2001/REC-SVG-20010904/DTD/svg10.dtd">
<svg version="1.0" xmlns="http://www.w3.org/2000/svg"
 width="538.000000pt" height="538.000000pt" viewBox="0 0 538.000000 538.000000"
 preserveAspectRatio="xMidYMid meet">
<metadata>
Created by potrace 1.14, written by Peter Selinger 2001-2017
</metadata>
<g transform="translate(0.000000,538.000000) scale(0.100000,-0.100000)"
fill="#000000" stroke="none">
<path d="M2400 5339 c-124 -14 -335 -58 -459 -95 -948 -286 -1647 -1048 -1850
-2019 -70 -334 -70 -746 0 -1080 221 -1054 1034 -1866 2079 -2075 199 -40 307
-50 530 -50 223 0 331 10 530 50 1045 209 1858 1021 2079 2075 70 334 70 746
0 1080 -165 786 -657 1445 -1359 1818 -286 152 -641 262 -962 296 -113 13
-478 12 -588 0z m701 -317 c501 -94 936 -319 1279 -662 294 -294 511 -674 615
-1074 63 -244 70 -302 70 -606 0 -304 -7 -362 -70 -606 -104 -400 -321 -780
-615 -1074 -348 -348 -791 -574 -1305 -667 -144 -26 -606 -26 -750 0 -514 93
-957 319 -1305 667 -348 348 -574 791 -667 1305 -26 144 -26 606 0 750 139
769 581 1381 1250 1730 259 136 507 211 852 259 17 2 145 3 285 1 202 -3 277
-8 361 -23z"/>
<path d="M2410 4614 c-832 -126 -1483 -782 -1605 -1615 -20 -138 -20 -400 0
-538 122 -838 778 -1494 1616 -1616 138 -20 400 -20 538 0 838 122 1494 778
1616 1616 20 138 20 400 0 538 -122 838 -778 1494 -1616 1616 -133 19 -418 18
-549 -1z m608 -323 c314 -70 573 -212 797 -436 226 -226 366 -482 438 -802 19
-85 22 -128 22 -323 0 -195 -3 -238 -22 -323 -72 -320 -212 -576 -438 -802
-226 -226 -482 -366 -802 -438 -85 -19 -128 -22 -323 -22 -195 0 -238 3 -323
22 -320 72 -576 212 -802 438 -226 226 -366 482 -438 802 -19 85 -22 128 -22
323 0 195 3 238 22 323 72 320 213 577 438 802 246 245 525 389 875 451 117
21 459 12 578 -15z"/>
<path d="M2220 3595 l0 -415 -415 0 -415 0 0 -460 0 -460 415 0 415 0 0 -415
0 -415 460 0 460 0 0 415 0 415 415 0 415 0 0 460 0 460 -415 0 -415 0 0 415
0 415 -460 0 -460 0 0 -415z m680 -270 l0 -395 390 0 390 0 0 -210 0 -210
-390 0 -390 0 0 -395 0 -395 -220 0 -220 0 0 395 0 395 -390 0 -390 0 0 210 0
210 390 0 390 0 0 395 0 395 220 0 220 0 0 -395z"/>
</g>
</svg>
